<?xml version="1.0" standalone="no"?>
<!DOCTYPE svg PUBLIC "-//W3C//DTD SVG 20010904//EN"
 "http://www.w3.org/TR/2001/REC-SVG-20010904/DTD/svg10.dtd">
<svg version="1.0" xmlns="http://www.w3.org/2000/svg"
 width="291.000000pt" height="346.000000pt" viewBox="0 0 291.000000 346.000000"
 preserveAspectRatio="xMidYMid meet">
<metadata>
Created by potrace 1.16, written by Peter Selinger 2001-2019
</metadata>
<g transform="translate(0.000000,346.000000) scale(0.100000,-0.100000)"
fill="#000000" stroke="none">
<path d="M1350 3430 c-16 -10 -79 -38 -145 -65 -22 -9 -82 -27 -134 -41 -121
-31 -222 -31 -361 0 -58 13 -109 21 -115 18 -5 -3 -7 -1 -2 3 4 5 -14 16 -40
25 -41 15 -52 15 -74 4 -37 -18 -174 -173 -173 -195 0 -10 -2 -18 -5 -17 -18
2 -31 -3 -31 -12 0 -5 8 -7 18 -5 9 3 -2 -4 -24 -15 -43 -20 -98 -82 -86 -95
4 -5 2 -5 -4 -2 -7 4 -38 -22 -73 -61 -56 -62 -61 -70 -61 -115 0 -31 9 -65
24 -95 52 -104 111 -272 132 -382 18 -93 15 -320 -5 -374 -6 -15 -11 -62 -10
-104 l1 -77 18 60 c46 157 58 412 26 535 -10 36 -20 75 -23 88 -3 12 -10 22
-15 22 -5 0 -8 6 -5 13 4 11 -11 54 -46 137 -5 14 -11 30 -13 35 -4 20 -31 65
-35 60 -5 -5 -6 5 -12 87 -2 31 0 55 5 52 5 -3 30 18 56 48 26 29 79 86 117
127 39 40 69 80 69 87 -1 8 3 11 9 7 6 -4 8 0 4 10 -4 11 -2 14 9 10 9 -3 14
1 14 12 0 9 5 13 10 10 6 -4 9 -3 8 2 -2 4 0 8 4 8 4 0 15 11 25 25 33 48 84
85 119 85 17 0 30 -3 27 -8 -2 -4 2 -9 9 -11 7 -2 30 -8 50 -15 20 -6 49 -14
65 -16 15 -3 62 -12 103 -21 94 -19 309 -6 293 19 -4 7 0 8 12 3 20 -7 198 56
228 82 9 8 17 12 17 9 0 -4 18 0 40 9 36 15 44 15 79 1 21 -9 41 -13 45 -10 3
4 6 2 6 -3 0 -15 107 -57 121 -48 7 4 9 3 6 -3 -12 -19 199 -73 287 -73 50 0
153 15 186 27 16 6 30 8 68 11 13 1 20 7 17 12 -4 6 7 10 25 10 17 0 48 9 69
20 l38 19 24 -25 c13 -13 28 -23 35 -20 7 3 11 -2 10 -11 -3 -20 59 -88 72
-79 6 4 8 -3 4 -16 -4 -17 -2 -20 12 -15 10 4 15 3 11 -3 -8 -13 116 -149 132
-144 7 1 10 -3 7 -9 -2 -7 12 -28 33 -47 20 -19 31 -27 24 -17 -9 11 -10 17
-2 17 10 0 15 -14 12 -33 -2 -15 29 -38 40 -31 8 4 9 3 5 -5 -4 -6 -2 -18 4
-26 12 -15 6 -80 -9 -100 -12 -15 -78 -173 -94 -225 -45 -142 -50 -162 -37
-170 8 -5 7 -9 -4 -13 -10 -4 -16 -17 -16 -34 1 -16 -2 -55 -5 -88 -4 -33 -2
-100 4 -150 7 -49 12 -97 12 -105 2 -37 107 -460 118 -475 5 -5 11 -32 15 -60
3 -27 11 -72 16 -100 5 -27 9 -73 9 -101 1 -56 -30 -186 -49 -209 -7 -8 -9
-15 -6 -15 4 0 0 -7 -9 -16 -9 -9 -13 -24 -10 -32 3 -9 3 -13 -1 -10 -10 10
-47 -40 -39 -52 4 -6 2 -9 -4 -8 -14 4 -112 -114 -107 -129 3 -7 -1 -10 -8 -7
-7 3 -29 -13 -49 -36 -21 -22 -37 -38 -37 -35 0 3 -10 -4 -22 -14 -13 -11 -34
-29 -47 -40 -13 -12 -28 -21 -33 -21 -5 0 -6 -10 -3 -22 4 -16 4 -19 -3 -9
-11 15 -36 6 -27 -10 3 -5 0 -6 -8 -3 -8 3 -28 -8 -45 -24 -17 -16 -33 -28
-35 -26 -2 2 -32 -14 -66 -36 -34 -22 -65 -40 -69 -40 -5 0 -18 -9 -30 -20
-12 -12 -22 -18 -22 -15 0 3 -20 -6 -45 -20 -25 -14 -66 -37 -92 -51 -27 -15
-95 -54 -153 -88 -58 -34 -117 -68 -132 -75 -15 -8 -25 -19 -21 -24 3 -6 1 -7
-4 -4 -12 8 -133 -52 -133 -65 0 -5 7 -11 15 -14 18 -7 96 36 88 49 -3 6 -1 7
6 3 7 -5 47 13 94 40 45 26 99 55 120 66 20 10 37 23 37 29 0 6 -5 7 -12 3 -6
-4 -8 -3 -5 4 4 5 16 8 27 5 10 -3 32 4 47 14 15 10 49 30 76 44 26 13 47 27
47 31 0 5 7 8 16 8 9 0 12 5 8 12 -4 6 -3 8 3 5 6 -4 25 1 44 11 117 60 280
173 214 148 -16 -6 -18 -5 -7 5 9 10 15 10 23 2 16 -16 102 55 94 76 -3 9 -3
12 1 8 4 -4 13 2 21 13 8 11 21 20 29 20 8 0 14 5 14 11 0 5 5 7 10 4 15 -10
124 100 115 116 -5 7 -4 10 3 6 25 -16 157 178 192 282 22 66 28 223 11 290
-5 20 -17 72 -27 116 -9 44 -23 92 -30 107 -8 15 -14 40 -14 55 0 15 -7 48
-16 73 -27 79 -58 242 -74 393 -10 99 0 207 30 310 6 20 8 42 4 49 -4 6 -3 8
2 5 6 -3 16 15 24 41 7 26 24 71 37 100 13 29 20 58 17 64 -5 7 -2 8 6 3 10
-6 12 -3 8 13 -4 13 -2 20 3 16 14 -8 39 60 39 105 0 43 -7 52 -115 171 -69
76 -137 140 -146 140 -5 0 -6 6 -3 13 3 8 -15 32 -41 56 -25 23 -45 45 -45 49
0 4 -8 14 -17 23 -10 8 -32 31 -50 52 -31 35 -32 36 -62 21 -33 -16 -166 -56
-252 -74 -103 -23 -309 -1 -391 41 -10 5 -22 9 -28 9 -5 0 -33 11 -62 24 -128
58 -180 69 -218 46z"/>
<path d="M1344 3309 c-210 -121 -533 -142 -781 -49 l-52 19 -92 -102 c-200
-222 -234 -261 -246 -276 -9 -12 -6 -25 12 -61 100 -200 142 -403 132 -645 -5
-144 -22 -242 -77 -450 -77 -290 -90 -350 -90 -403 0 -127 57 -271 152 -388
143 -177 481 -407 981 -669 l127 -66 128 67 c245 129 551 310 672 398 75 54
210 165 238 196 13 14 38 41 56 60 91 97 154 238 163 364 5 76 1 97 -61 336
-95 369 -106 436 -106 620 0 127 4 174 24 260 29 128 58 214 102 301 l33 66
-22 24 c-12 13 -89 99 -171 192 -82 92 -157 167 -166 167 -9 0 -41 -8 -71 -19
-114 -38 -226 -54 -354 -48 -147 7 -249 32 -371 92 -49 25 -94 45 -100 44 -5
0 -32 -13 -60 -30z m216 -144 c151 -17 293 -58 434 -124 104 -49 106 -49 106
-26 0 13 8 31 17 40 32 33 189 -1 217 -47 7 -12 4 -42 -13 -108 -20 -76 -23
-105 -18 -179 8 -102 3 -111 -63 -111 -53 0 -92 17 -215 91 -119 72 -230 121
-340 150 -79 21 -113 24 -275 24 -170 0 -193 -3 -286 -27 -124 -34 -184 -61
-347 -156 -107 -63 -138 -76 -183 -80 -79 -7 -83 0 -77 116 4 83 1 109 -20
179 -21 74 -22 85 -9 104 20 28 66 46 137 54 70 7 86 -1 87 -43 1 -18 3 -32 5
-32 2 0 36 16 76 36 149 76 291 118 457 139 141 17 165 17 310 0z m100 -375
c181 -46 350 -149 502 -303 89 -90 99 -97 114 -83 19 20 34 20 59 2 27 -19 40
-250 16 -280 -14 -17 -12 -17 13 2 22 17 32 19 42 11 24 -20 15 -49 -43 -139
-57 -88 -73 -104 -73 -76 0 8 -4 17 -9 21 -6 3 -6 -6 -1 -24 9 -33 -3 -51 -35
-51 -45 0 -71 44 -89 151 -4 21 -13 42 -21 49 -8 7 -15 19 -15 26 0 8 -6 14
-13 14 -7 0 -21 15 -32 33 -37 63 -164 213 -207 244 -135 97 -283 143 -458
143 -182 0 -345 -53 -471 -153 -82 -65 -266 -312 -279 -374 -6 -27 -12 -58
-15 -70 -7 -30 -44 -63 -70 -63 -12 0 -32 12 -44 26 -29 34 -141 204 -141 214
0 20 32 40 49 30 17 -8 18 0 20 113 2 130 14 167 51 167 10 0 25 -7 34 -15 14
-14 26 -5 118 88 166 167 336 263 538 306 130 27 337 23 460 -9z m-92 -426
c117 -33 233 -112 311 -209 61 -78 120 -243 121 -340 l0 -40 50 3 c33 3 50 0
50 -7 0 -7 10 -3 22 9 12 11 27 20 33 20 21 0 149 -47 200 -72 76 -39 89 -57
83 -120 -3 -29 -3 -47 -1 -41 4 10 10 10 25 2 32 -17 98 -80 98 -94 0 -7 -20
-15 -51 -18 -29 -4 -54 -9 -56 -11 -3 -3 4 -17 14 -33 11 -15 25 -43 31 -62
13 -36 16 -91 6 -91 -3 0 -25 16 -49 35 -23 20 -71 47 -106 61 -126 50 -149
65 -149 101 0 13 11 35 25 49 l25 25 -32 13 c-18 7 -49 16 -68 20 l-35 6 24
-19 c27 -21 31 -65 9 -88 -13 -13 -22 -13 -74 1 -32 8 -78 16 -101 17 -48 3
-50 7 -27 50 8 17 14 32 12 34 -2 2 -18 -24 -36 -58 -106 -201 -355 -327 -584
-295 -179 24 -349 133 -426 271 -13 23 -29 47 -35 52 -6 6 -3 -2 6 -17 l17
-27 -38 -6 c-20 -3 -67 -12 -104 -20 -74 -16 -94 -13 -101 16 -10 36 5 61 47
80 51 23 45 23 -36 3 -64 -17 -161 -60 -107 -48 51 11 81 -71 37 -100 -13 -8
-61 -31 -108 -51 -46 -20 -103 -52 -126 -71 -23 -18 -45 -34 -48 -34 -10 0 -7
55 6 91 6 19 20 46 30 61 l19 28 -26 10 c-14 5 -40 10 -56 10 -42 0 -37 21 17
69 48 42 69 50 77 29 3 -7 3 14 0 47 -2 40 1 65 9 76 19 23 141 82 217 104
l64 19 23 -28 c18 -20 24 -23 24 -11 0 14 9 16 50 13 l50 -3 0 42 c0 106 53
250 125 342 75 96 173 163 295 202 73 24 250 25 328 3z m-745 -1141 c283 -142
307 -148 597 -147 205 0 219 2 305 28 50 15 168 66 263 114 146 72 183 87 233
90 36 3 64 0 73 -7 8 -7 16 -45 21 -102 3 -50 13 -112 20 -137 27 -90 27 -107
1 -131 -14 -13 -29 -20 -34 -17 -5 3 -16 -2 -23 -11 -8 -9 -28 -22 -46 -30
-98 -40 -169 19 -111 92 20 26 17 25 -53 -14 -188 -107 -312 -153 -474 -176
-191 -28 -400 -11 -567 45 -88 30 -297 130 -326 158 -7 6 -19 12 -25 12 -6 0
-2 -7 10 -15 31 -21 40 -71 17 -96 -27 -30 -83 -24 -164 17 -83 42 -91 60 -66
141 10 30 23 98 28 152 6 53 16 102 22 110 7 9 28 12 74 9 56 -4 84 -14 225
-85z m304 -504 c12 -5 81 -13 153 -19 145 -13 348 -1 434 25 26 8 52 12 57 9
5 -3 9 -20 10 -37 0 -18 6 -66 13 -107 15 -84 16 -83 -49 -101 -61 -17 -172
-72 -258 -129 l-78 -50 -61 41 c-74 51 -216 122 -278 140 -25 7 -48 17 -51 21
-3 5 -2 30 2 56 4 26 8 66 8 90 1 24 6 52 11 63 11 20 30 19 87 -2z"/>
<path d="M1223 3133 c-24 -5 -23 4 -3 -143 6 -41 13 -76 15 -78 2 -3 11 -2 20
2 13 5 16 16 13 49 -3 41 -2 42 32 47 24 3 36 11 38 24 4 17 -1 18 -36 13 -30
-4 -42 -1 -46 10 -13 32 -5 43 34 49 56 9 54 34 -2 33 -24 -1 -53 -4 -65 -6z"/>
<path d="M1516 3114 c-35 -35 -17 -78 46 -110 35 -18 48 -30 44 -40 -3 -9 -6
-18 -6 -20 0 -8 -42 -4 -61 6 -10 6 -19 17 -19 24 0 8 -9 16 -20 19 -16 4 -20
0 -20 -18 0 -35 44 -65 96 -65 50 0 74 19 74 60 0 30 -25 53 -82 78 -30 13
-37 39 -13 48 25 10 62 -4 68 -26 6 -24 47 -28 47 -5 0 9 -11 27 -25 40 -29
30 -104 35 -129 9z"/>
<path d="M928 3052 c-27 -8 -48 -20 -47 -26 0 -6 15 -51 33 -101 38 -101 40
-102 122 -66 30 14 45 27 50 45 8 34 -1 57 -26 63 -17 5 -19 11 -14 38 4 23 1
37 -11 48 -20 20 -45 20 -107 -1z"/>
<path d="M1826 3034 c-29 -28 -19 -59 31 -101 49 -42 54 -73 13 -73 -23 0 -63
36 -55 50 6 9 -33 25 -42 17 -3 -3 -1 -18 4 -33 21 -63 117 -91 154 -45 28 34
24 50 -26 95 -44 41 -59 76 -31 76 28 0 48 -13 57 -36 10 -27 49 -33 49 -8 0
8 -13 29 -29 45 -23 22 -39 29 -70 29 -23 0 -46 -7 -55 -16z"/>
<path d="M1168 2723 c-10 -2 -18 -8 -18 -11 1 -17 29 -124 34 -129 10 -11 78
20 92 43 18 27 13 64 -12 88 -15 15 -58 19 -96 9z"/>
<path d="M892 2594 c-39 -27 -28 -95 19 -119 72 -38 133 52 74 110 -28 29 -61
32 -93 9z"/>
<path d="M1310 2340 c-210 -40 -397 -218 -439 -418 -14 -68 -14 -186 0 -253
19 -89 76 -187 153 -265 108 -107 227 -157 381 -158 157 -1 284 52 395 164
138 140 190 326 145 519 -55 230 -267 404 -508 416 -45 2 -102 0 -127 -5z m6
-125 c1 -11 8 -45 14 -75 6 -30 12 -65 13 -77 2 -25 12 -30 23 -12 3 6 17 8
30 5 13 -4 24 -3 24 2 0 4 -12 9 -27 10 -33 2 -53 26 -53 63 0 15 -3 35 -7 44
-6 19 -5 18 80 -7 29 -9 43 -8 61 2 14 7 32 9 43 5 10 -4 35 -8 57 -9 23 0 42
-7 46 -16 14 -29 30 -84 25 -89 -3 -2 -30 -3 -60 -2 -30 1 -55 -2 -55 -6 0 -5
32 -9 70 -8 76 0 85 -7 77 -57 -2 -12 -2 -17 0 -10 3 6 8 12 12 12 13 0 59
-54 63 -74 1 -11 9 -21 16 -22 7 -1 8 0 2 3 -21 10 -9 18 30 20 22 0 40 -4 40
-9 0 -20 -39 -73 -69 -96 -30 -22 -31 -22 -31 -3 0 12 12 27 28 36 15 9 18 13
7 10 -11 -4 -28 -9 -37 -12 -12 -4 -15 -13 -12 -36 7 -46 -6 -61 -39 -46 -22
10 -27 19 -27 46 0 31 2 33 28 28 27 -6 27 -6 -3 8 -33 15 -49 5 -39 -25 3
-12 0 -18 -9 -18 -17 0 -26 -18 -19 -37 5 -15 32 -17 32 -3 0 6 13 4 30 -5 24
-12 30 -22 31 -48 0 -17 2 -53 5 -79 4 -42 2 -48 -25 -67 -22 -16 -31 -31 -33
-59 -2 -26 -8 -38 -20 -40 -20 -4 -25 27 -8 44 7 7 1 9 -20 6 -17 -2 -33 -8
-36 -13 -3 -5 2 -6 10 -3 10 4 20 -6 31 -30 17 -35 17 -37 -6 -71 -26 -37 -47
-50 -96 -60 -29 -6 -34 -3 -43 21 -6 15 -9 33 -6 41 3 7 0 13 -7 13 -10 0 -47
83 -60 134 -1 5 9 13 23 17 l25 7 -28 1 c-25 1 -27 4 -20 24 4 12 6 40 5 62
-2 38 9 73 34 105 6 8 14 27 18 42 4 19 14 28 34 31 27 4 27 4 -3 6 -17 0 -36
-4 -42 -10 -14 -14 -34 -2 -32 19 1 10 1 31 0 47 l-2 30 -27 -33 c-15 -18 -33
-32 -39 -32 -7 0 -13 -7 -13 -15 0 -19 -29 -19 -54 0 -16 12 -17 18 -7 46 15
42 14 56 -1 41 -16 -16 -28 -15 -28 2 0 8 7 16 15 20 21 8 36 49 21 58 -19 13
-29 9 -16 -7 17 -21 5 -45 -22 -45 -13 0 -32 -8 -43 -16 -19 -15 -19 -15 6 -9
19 5 28 2 32 -9 5 -12 0 -16 -18 -16 -13 0 -27 -4 -30 -10 -10 -16 -28 -12
-21 5 4 12 2 13 -15 2 -16 -10 -21 -9 -28 1 -6 9 -23 13 -52 10 -39 -3 -44 -1
-47 20 -4 26 19 30 42 6 9 -8 16 -11 16 -5 0 5 17 11 38 13 l37 3 -3 63 c-2
35 -10 75 -18 90 -12 23 -20 18 -15 -10 0 -5 -5 -8 -13 -8 -17 0 -56 -51 -56
-72 1 -7 10 3 20 23 12 24 28 38 45 41 25 5 25 4 25 -60 l0 -65 -50 5 c-59 6
-57 5 -64 41 -6 33 26 93 53 100 11 2 22 17 25 34 8 34 52 71 79 65 21 -4 23
-30 2 -38 -8 -4 -15 -11 -15 -17 0 -5 9 -2 20 8 11 10 20 29 20 41 0 18 8 25
33 32 49 13 70 9 73 -13z"/>
<path d="M180 1814 c0 -5 -11 -22 -25 -38 -14 -17 -23 -36 -20 -43 2 -8 0 -11
-5 -8 -6 3 -10 -5 -10 -19 0 -14 -4 -35 -9 -48 -16 -43 -31 -94 -36 -124 -2
-16 -11 -53 -19 -83 -11 -39 -15 -89 -12 -185 2 -117 6 -137 30 -191 39 -86
77 -139 89 -123 6 9 7 8 3 -5 -7 -21 32 -79 47 -70 6 3 7 2 4 -4 -7 -11 71
-99 85 -95 5 1 7 -1 4 -6 -9 -14 130 -136 145 -126 5 3 9 0 9 -6 0 -6 4 -8 10
-5 5 3 10 1 10 -4 0 -6 7 -11 15 -11 8 0 25 -11 37 -25 12 -14 26 -25 32 -25
6 0 32 -15 59 -34 26 -18 60 -39 76 -45 15 -7 34 -23 41 -36 7 -13 20 -26 29
-29 9 -3 30 -15 46 -26 34 -22 72 -40 86 -40 5 0 9 -3 9 -8 0 -4 21 -18 48
-32 26 -13 49 -27 52 -31 12 -15 51 -29 62 -23 7 5 8 3 3 -6 -6 -10 -4 -12 8
-7 9 3 19 2 22 -3 4 -6 15 -10 26 -10 25 0 98 -45 125 -78 16 -19 24 -23 38
-15 22 12 16 17 -84 71 -41 22 -118 65 -170 96 -52 31 -101 54 -108 51 -7 -2
-10 0 -7 5 3 5 -16 20 -42 32 -26 13 -51 27 -54 32 -4 5 -12 5 -19 1 -8 -5
-11 -4 -7 2 8 13 -20 26 -35 16 -6 -3 -8 -1 -5 4 4 6 -30 32 -76 59 -79 46
-156 97 -206 135 -13 10 -28 16 -34 12 -5 -3 -7 -2 -4 4 4 6 -8 23 -26 38 -18
16 -49 44 -70 62 -21 19 -42 31 -46 28 -5 -2 -8 3 -7 13 0 9 -5 16 -12 14 -8
-1 -11 2 -8 7 5 8 -31 58 -64 91 -3 3 -16 22 -30 42 -13 20 -28 34 -32 32 -4
-3 -8 1 -8 9 0 8 -11 39 -24 68 -40 84 -52 176 -38 283 12 92 31 180 58 270
11 40 12 51 2 58 -10 5 -8 8 5 8 10 0 17 8 17 19 0 10 7 38 15 61 8 24 13 45
10 48 -3 3 -5 1 -5 -4z"/>
</g>
</svg>
